<svg width="40" height="40" viewBox="0 0 40 40" fill="none" xmlns="http://www.w3.org/2000/svg">
	<g filter="url(#filter_3_2_dd)">
		<rect id="画板 1" width="40" height="40" transform="translate(4.000000 -4.000000 )" fill="#F7F7F7"/>
		<g clip-path="url(#clip3_2)">
			<g clip-path="url(#clip3_12)">
				<path id="path" d="M35.9099 13.1521L35.9099 28.9232L12.3954 28.9232L12.3954 13.1521" stroke="#285B70" stroke-width="5.000000" stroke-linejoin="round" stroke-linecap="round"/>
				<path id="path" d="M10.5295 6.13321L10.5295 13.1464L37.7755 13.1464L37.7755 6.13321L10.5295 6.13321Z" stroke="#285B70" stroke-width="5.000000" stroke-linejoin="round"/>
				<path id="path" d="M20.5987 19.0347L27.7063 19.0347" stroke="#285B70" stroke-width="5.000000" stroke-linejoin="round" stroke-linecap="round"/>
			</g>
			<path id="Icon" d="M32.4799 21.1429L32.4799 19.3857L30.6199 18.7999L29.9999 19.3857L30.6199 21.1429L32.4799 21.1429L35.2699 23.7787M40.7004 19.234C40.1976 18.958 39.6133 18.7999 38.9899 18.7999C37.1066 18.7999 35.5799 20.2423 35.5799 22.0215C35.5799 22.236 35.6021 22.4456 35.6444 22.6483C35.7039 22.9331 35.7336 23.0755 35.7245 23.1618C35.7148 23.2535 35.7002 23.2988 35.6542 23.3801C35.6109 23.4565 35.5296 23.5333 35.3672 23.6867L30.9299 27.8788C30.4163 28.364 30.4163 29.1507 30.9299 29.636C31.4435 30.1212 32.2763 30.1212 32.7899 29.636L37.2272 25.4439C37.3896 25.2905 37.4709 25.2137 37.5518 25.1728C37.6379 25.1293 37.6857 25.1155 37.7829 25.1064C37.8742 25.0978 38.0249 25.1259 38.3263 25.182C38.541 25.222 38.7628 25.243 38.9899 25.243C40.8732 25.243 42.3999 23.8007 42.3999 22.0215C42.3999 21.5883 42.3094 21.175 42.1452 20.7977L40.6213 22.2374C40.3758 22.4693 40.253 22.5853 40.1115 22.6288C39.9869 22.667 39.8528 22.667 39.7283 22.6288C39.5867 22.5853 39.464 22.4693 39.2184 22.2374L39.0713 22.0984C38.8258 21.8665 38.703 21.7505 38.657 21.6167C38.6166 21.4991 38.6166 21.3724 38.657 21.2547C38.703 21.121 38.8258 21.005 39.0713 20.7731L40.7004 19.234ZM36.1999 26.4144L37.4025 25.2783C37.5793 25.1112 37.8439 25.0658 38.0852 25.1284C38.2724 25.1769 38.466 25.2108 38.6646 25.2285L41.4698 27.8787C41.9835 28.364 41.9835 29.1507 41.4699 29.6359C40.9562 30.1212 40.1235 30.1212 39.6099 29.6359L36.1999 26.4144Z" stroke="#939393" stroke-width="2.000000" stroke-linejoin="round"/>
			<path id="JulyTools" d="M15.6434 33.9126L17.1508 33.9126L17.1508 28.3623L15.6434 28.3623L15.6434 33.9126ZM34.2376 33.9126L35.7449 33.9126L35.7449 28.3623L34.2376 28.3623L34.2376 33.9126ZM10.6763 28.4224L9.3916 28.4224L9.3916 33.498L8.27539 33.498L8.27539 33.9126L10.6763 33.9126L10.6763 28.4224ZM22.1895 28.812L23.1915 28.812L23.1915 33.9126L24.6563 33.9126L24.6563 28.812L25.6582 28.812L25.6582 28.4224L22.1895 28.4224L22.1895 28.812ZM19.6277 31.9556L20.2708 30.1318L21.6375 30.1318L19.8914 35.2383L18.4705 35.2383L19.0887 33.4863L18.8118 33.4863L17.7015 30.1318L19.0037 30.1318L19.6277 31.9556ZM26.2095 33.9126L29.6724 33.9126L29.6724 30.5098Q29.6724 30.3545 29.564 30.2432Q29.4556 30.1318 29.3004 30.1318L26.2095 30.1318L26.2095 33.9126ZM30.2236 33.9126L33.6864 33.9126L33.6864 30.5098Q33.6864 30.3545 33.578 30.2432Q33.4697 30.1318 33.3144 30.1318L30.2236 30.1318L30.2236 33.9126ZM38.2219 32.3818L38.2219 33.4746L36.2956 33.4746L36.2956 33.9126L39.6677 33.9126L39.6677 32.1782Q39.6677 32.0215 39.5593 31.9116Q39.4523 31.8003 39.2956 31.8003L37.7487 31.8003L37.7487 30.5947L39.6677 30.5947L39.6677 30.1553L36.2956 30.1553L36.2956 32.2559L38.0959 32.2559Q38.2219 32.2559 38.2219 32.3818ZM12.6498 30.1626L11.2274 30.1626L11.2274 33.9126L13.3705 33.9126L14.0062 33.7207L14.642 33.9126L15.0917 33.9126L15.0917 33.4805L14.642 33.4805L14.642 30.1626L13.2196 30.1626L13.2196 33.4805L12.6498 33.4805L12.6498 30.1626ZM27.6568 33.4746L27.6568 30.5757L28.1548 30.5757Q28.2808 30.5757 28.2808 30.7017L28.2808 33.4746L27.6568 33.4746ZM31.6708 33.4746L31.6708 30.5757L32.1689 30.5757Q32.2948 30.5757 32.2948 30.7017L32.2948 33.4746L31.6708 33.4746Z" fill="#000000FF"/>
		</g>
	</g>
	<defs>
		<filter id="filter_3_2_dd" x="0.000000" y="0.000000" width="40" height="40" filterUnits="userSpaceOnUse" color-interpolation-filters="sRGB">
			<feFlood flood-opacity="0" result="BackgroundImageFix"/>
			<feColorMatrix in="SourceAlpha" type="matrix" values="0 0 0 0 0 0 0 0 0 0 0 0 0 0 0 0 0 0 127 0"/>
			<feOffset dx="0" dy="4"/>
			<feGaussianBlur stdDeviation="1.33333"/>
			<feColorMatrix type="matrix" values="0 0 0 0 0 0 0 0 0 0 0 0 0 0 0 0 0 0 0.25 0"/>
			<feBlend mode="normal" in2="BackgroundImageFix" result="effect_dropShadow_1"/>
			<feBlend mode="normal" in="SourceGraphic" in2="effect_dropShadow_1" result="shape"/>
		</filter>
		<clipPath id="clip3_12">
			<rect id="Packaging Box-2" width="30.799900" height="26.399916" transform="translate(8.799988 4.399979)" fill="white"/>
		</clipPath>
		<clipPath id="clip3_2">
			<rect id="画板 1" width="40" height="40" transform="translate(4.000000 0.000000)" fill="white"/>
		</clipPath>
	</defs>
</svg>
